<svg width="50" height="51" viewBox="0 0 50 51" fill="none" xmlns="http://www.w3.org/2000/svg">
<path d="M26.1439 2L9 12.8945L14.0853 33.4963L13.87 42.5556L26.1439 49L37.7712 41.6003L36.7668 33.4963L43 10.7224L26.1439 2Z" fill="#DBD8D3"/>
<path fill-rule="evenodd" clip-rule="evenodd" d="M25.0664 0L43 9.45893L37.2356 33.0163L38.2174 42.1861L25.1068 50L11.8378 42.8988L12.0636 33.2097L7 10.0889L25.0664 0ZM24.3694 1.56014L8.78697 11.2755L14.07 33.0192L13.2901 41.4855L25.0664 49.1444L36.216 41.4855L35.5201 33.2097L40.881 10.0889L24.3694 1.56014Z" fill="black"/>
<path d="M17.9428 16.8892C17.6953 17.1966 16.9115 18.0678 16.6279 18.1959C17.324 20.2712 18.809 24.7446 19.1803 26.0359C19.5515 27.3272 23.4083 40.7679 25.2904 47.3269L26.1411 26.0359V4.51428C23.4599 8.69049 18.1903 16.5817 17.9428 16.8892Z" fill="#269698"/>
<path d="M21.461 23.1502C21.461 23.1502 18.0266 21.6187 17.7886 21.7315C18.3728 23.56 20.3387 30.0479 20.6503 31.1857C20.9619 32.3234 23.7113 41.5479 25.2909 47.3268L23.5382 38.1167L22.175 28.0939C22.175 28.0939 21.6687 22.8794 21.461 23.1502Z" fill="url(#paint0_linear_631_67)"/>
<path d="M24.5176 46.7888L24.827 21.1166L26.7605 18.5801L34.5722 6.66638C34.5722 9.58717 31.9425 25.1135 31.0144 29.7252C30.2719 33.4146 28.0754 41.9464 25.4457 50.017L24.5176 46.7888Z" fill="#D07232"/>
<path d="M24.5176 46.7119L24.827 21.0397L26.2563 19.3488V23.5762L26.1418 35.3362C26.1418 35.3362 25.2137 46.2507 25.4457 49.9402L24.5176 46.7119Z" fill="url(#paint1_linear_631_67)"/>
<defs>
<linearGradient id="paint0_linear_631_67" x1="21.5397" y1="21.7256" x2="21.5397" y2="47.3268" gradientUnits="userSpaceOnUse">
<stop stop-color="#269698"/>
<stop offset="1" stop-color="#188286"/>
</linearGradient>
<linearGradient id="paint1_linear_631_67" x1="25.3869" y1="19.3488" x2="25.3869" y2="49.9402" gradientUnits="userSpaceOnUse">
<stop stop-color="#C7672D"/>
<stop offset="1" stop-color="#D07232"/>
</linearGradient>
</defs>
</svg>
