<svg width="54" height="54" viewBox="0 0 54 54" fill="none" xmlns="http://www.w3.org/2000/svg">
<path d="M28.8304 3.375L11.8125 14.3275L16.8604 35.0388L16.6467 44.1464L28.8304 50.625L40.3722 43.1859L39.3751 35.0388L45.5625 12.1438L28.8304 3.375Z" fill="#DBD8D3"/>
<path fill-rule="evenodd" clip-rule="evenodd" d="M27.9091 1.6875L45.5625 11.2647L39.8882 35.1165L40.8546 44.4009L27.9489 52.3125L14.8872 45.1226L15.1095 35.3124L10.125 11.9025L27.9091 1.6875ZM27.223 3.26714L11.8841 13.104L17.0846 35.1195L16.3169 43.6916L27.9091 51.4462L38.8845 43.6916L38.1995 35.3124L43.4766 11.9025L27.223 3.26714Z" fill="black"/>
<path d="M20.8968 18.4167C20.6532 18.7213 19.8817 19.5841 19.6025 19.711C20.2878 21.7667 21.7495 26.1977 22.115 27.4768C22.4804 28.7558 26.277 42.0693 28.1296 48.5661L28.9671 27.4768V6.15906C26.3278 10.2957 21.1405 18.1122 20.8968 18.4167Z" fill="#269698"/>
<path d="M24.3602 24.6184C24.3602 24.6184 20.9794 23.1014 20.7451 23.2132C21.3202 25.0243 23.2554 31.4508 23.5621 32.5777C23.8688 33.7047 26.5753 42.8419 28.1302 48.566L26.4049 39.4431L25.063 29.5153C25.063 29.5153 24.5646 24.3501 24.3602 24.6184Z" fill="url(#paint0_linear_631_67)"/>
<path d="M27.3691 48.0331L27.6737 22.6041L29.577 20.0917L37.2667 8.29077C37.2667 11.1839 34.6781 26.5631 33.7645 31.1312C33.0336 34.7857 30.8713 43.2366 28.2828 51.2307L27.3691 48.0331Z" fill="#D07232"/>
<path d="M27.3691 47.9569L27.6737 22.5279L29.0806 20.8529V25.0403L28.968 36.6889C28.968 36.6889 28.0544 47.5001 28.2828 51.1545L27.3691 47.9569Z" fill="url(#paint1_linear_631_67)"/>
<defs>
<linearGradient id="paint0_linear_631_67" x1="24.4377" y1="23.2073" x2="24.4377" y2="48.566" gradientUnits="userSpaceOnUse">
<stop stop-color="#269698"/>
<stop offset="1" stop-color="#188286"/>
</linearGradient>
<linearGradient id="paint1_linear_631_67" x1="28.2249" y1="20.8529" x2="28.2249" y2="51.1545" gradientUnits="userSpaceOnUse">
<stop stop-color="#C7672D"/>
<stop offset="1" stop-color="#D07232"/>
</linearGradient>
</defs>
</svg>
